<?xml version="1.0" encoding="utf-8"?>
<!-- Generator: Adobe Illustrator 16.0.0, SVG Export Plug-In . SVG Version: 6.00 Build 0)  -->
<!DOCTYPE svg PUBLIC "-//W3C//DTD SVG 1.1//EN" "http://www.w3.org/Graphics/SVG/1.1/DTD/svg11.dtd">
<svg version="1.1" id="Layer_1" xmlns="http://www.w3.org/2000/svg" xmlns:xlink="http://www.w3.org/1999/xlink" x="0px" y="0px"
	 width="300px" height="200px" viewBox="0 0 300 200" enable-background="new 0 0 300 200" xml:space="preserve">
<path fill="#FFFFFF" stroke="#FFFFFF" stroke-width="2" stroke-miterlimit="10" d="M12.919,83.326h7.496h4.734
	c11.659,0,21.612,4.32,29.854,12.954c8.239,8.637,12.362,19.005,12.362,31.104s-4.123,22.509-12.362,31.233
	c-8.242,8.726-18.195,13.085-29.854,13.085h-4.734h-7.496V84.51V83.326z M20.415,90.69v73.647h4.734
	c9.555,0,17.732-3.617,24.528-10.849c6.792-7.235,10.191-15.934,10.191-26.105s-3.399-18.828-10.191-25.973
	c-6.796-7.146-14.973-10.72-24.528-10.72H20.415z"/>
<path fill="#FFFFFF" stroke="#FFFFFF" stroke-width="2" stroke-miterlimit="10" d="M179.413,83.326h6.97l38.267,72.858V83.326h7.496
	v88.375h-7.496v-0.92l-37.741-71.936v72.855h-7.495V84.51V83.326z"/>
<path fill="#FFFFFF" stroke="#FFFFFF" stroke-width="2" stroke-miterlimit="10" d="M248.455,83.326h3.812h2.367h35.115v7.364H255.95
	v32.352h16.043v7.365H255.95v33.93h32.352v7.364h-33.668h-2.367h-3.812V84.51V83.326z"/>
<path fill="#FFFFFF" stroke="#FFFFFF" stroke-width="2" stroke-miterlimit="10" d="M152.517,94.702
	c-3.101-3.432-6.457-6.209-10.066-8.344l-1.762,7.707c2.284,1.58,4.461,3.451,6.503,5.702c6.839,7.539,10.258,16.748,10.258,27.617
	c0,10.871-3.419,20.1-10.258,27.683c-6.841,7.584-15.038,11.377-24.594,11.377s-17.753-3.793-24.593-11.377
	c-6.838-7.583-10.257-16.812-10.257-27.683c0-10.869,3.419-20.078,10.257-27.617c2.41-2.656,4.998-4.819,7.745-6.54l-2.072-7.357
	c-3.959,2.196-7.637,5.111-10.999,8.833c-8.199,9.076-12.296,19.968-12.296,32.681c0,12.715,4.097,23.629,12.296,32.746
	c8.197,9.12,18.169,13.677,29.919,13.677c11.747,0,21.722-4.557,29.919-13.677c8.196-9.117,12.299-20.031,12.299-32.746
	C164.815,114.67,160.713,103.777,152.517,94.702z"/>
<g>
	<g>
		<path fill="#95CC46" d="M100.174,96.587c6.755,23.988,13.511,47.977,20.267,71.966c1.368,4.856,2.735,9.714,4.104,14.571
			c0.287,1.019,0.461,3.624,0.944,1.511c1.938-8.484,3.877-16.969,5.816-25.452c9.056-39.634,18.112-79.268,27.167-118.901
			c1.041-4.556,0.15-10.373,0.15-15c0-3.536-0.009-7.071-0.044-10.606c-0.011-1.028-0.359-3.286-0.106-4.394
			c-10.718,46.907-21.436,93.814-32.154,140.723c-0.343,1.504-0.687,3.007-1.031,4.511c0.03-0.13-0.785-2.537-0.952-3.131
			c-2.758-9.793-5.516-19.586-8.274-29.38c-5.296-18.805-10.592-37.611-15.888-56.417c0.28,0.996-0.097,3.502-0.106,4.394
			c-0.036,3.535-0.044,7.071-0.044,10.606C100.024,86.032,98.952,92.247,100.174,96.587L100.174,96.587z"/>
	</g>
</g>
</svg>
